<svg width="85" height="68" viewBox="0 0 85 68" fill="none" xmlns="http://www.w3.org/2000/svg">
<path d="M42 4C33.7179 4 27 10.5835 27 18.7C27 29.725 42 46 42 46C42 46 57 29.725 57 18.7C57 10.5835 50.2821 4 42 4ZM42 23.95C39.0429 23.95 36.6429 21.598 36.6429 18.7C36.6429 15.802 39.0429 13.45 42 13.45C44.9571 13.45 47.3571 15.802 47.3571 18.7C47.3571 21.598 44.9571 23.95 42 23.95Z" fill="white"/>
<path d="M28.4149 65.1491C27.6526 65.1491 26.998 64.9818 26.4511 64.647C25.9075 64.3123 25.4883 63.8499 25.1933 63.2599C24.9016 62.6667 24.7558 61.9839 24.7558 61.2116C24.7558 60.4361 24.9049 59.7517 25.2032 59.1584C25.5015 58.5618 25.9224 58.0978 26.466 57.7663C27.0129 57.4316 27.6592 57.2642 28.4049 57.2642C29.0247 57.2642 29.5732 57.3786 30.0505 57.6072C30.5311 57.8326 30.9139 58.1525 31.199 58.5668C31.484 58.9777 31.6464 59.4583 31.6862 60.0085H29.966C29.8964 59.6406 29.7307 59.334 29.4688 59.0888C29.2103 58.8402 28.864 58.7159 28.4298 58.7159C28.0619 58.7159 27.7387 58.8153 27.4603 59.0142C27.1819 59.2098 26.9648 59.4915 26.809 59.8594C26.6566 60.2273 26.5803 60.6681 26.5803 61.1818C26.5803 61.7022 26.6566 62.1496 26.809 62.5241C26.9615 62.8954 27.1753 63.1821 27.4504 63.3842C27.7288 63.5831 28.0552 63.6825 28.4298 63.6825C28.6949 63.6825 28.9319 63.6328 29.1407 63.5334C29.3528 63.4306 29.5302 63.2831 29.6727 63.0909C29.8152 62.8987 29.913 62.665 29.966 62.3899H31.6862C31.6431 62.9302 31.484 63.4091 31.2089 63.8267C30.9338 64.241 30.5593 64.5658 30.0853 64.8011C29.6114 65.0331 29.0545 65.1491 28.4149 65.1491ZM33.164 65V57.3636H34.9637V65H33.164ZM34.0688 56.2798C33.7838 56.2798 33.5385 56.1854 33.333 55.9964C33.1275 55.8042 33.0248 55.5739 33.0248 55.3054C33.0248 55.0336 33.1275 54.8033 33.333 54.6143C33.5385 54.4221 33.7838 54.326 34.0688 54.326C34.3572 54.326 34.6024 54.4221 34.8046 54.6143C35.0101 54.8033 35.1128 55.0336 35.1128 55.3054C35.1128 55.5739 35.0101 55.8042 34.8046 55.9964C34.6024 56.1854 34.3572 56.2798 34.0688 56.2798ZM40.6276 57.3636V58.7557H36.2377V57.3636H40.6276ZM37.3215 55.5341H39.1212V62.7031C39.1212 62.9451 39.1576 63.1307 39.2306 63.2599C39.3068 63.3859 39.4062 63.4721 39.5289 63.5185C39.6515 63.5649 39.7874 63.5881 39.9365 63.5881C40.0492 63.5881 40.152 63.5798 40.2448 63.5632C40.3409 63.5466 40.4138 63.5317 40.4635 63.5185L40.7668 64.9254C40.6707 64.9586 40.5331 64.995 40.3541 65.0348C40.1785 65.0746 39.963 65.0978 39.7078 65.1044C39.2571 65.1177 38.8511 65.0497 38.4898 64.9006C38.1285 64.7481 37.8418 64.5128 37.6297 64.1946C37.4209 63.8764 37.3182 63.4787 37.3215 63.0014V55.5341ZM42.1327 65V57.3636H43.9324V65H42.1327ZM43.0376 56.2798C42.7525 56.2798 42.5073 56.1854 42.3018 55.9964C42.0963 55.8042 41.9935 55.5739 41.9935 55.3054C41.9935 55.0336 42.0963 54.8033 42.3018 54.6143C42.5073 54.4221 42.7525 54.326 43.0376 54.326C43.3259 54.326 43.5712 54.4221 43.7733 54.6143C43.9788 54.8033 44.0816 55.0336 44.0816 55.3054C44.0816 55.5739 43.9788 55.8042 43.7733 55.9964C43.5712 56.1854 43.3259 56.2798 43.0376 56.2798ZM49.1638 65.1491C48.3982 65.1491 47.7369 64.9901 47.1801 64.6719C46.6266 64.3504 46.2007 63.8963 45.9024 63.3097C45.6041 62.7197 45.455 62.0253 45.455 61.2266C45.455 60.4411 45.6041 59.7517 45.9024 59.1584C46.204 58.5618 46.625 58.0978 47.1652 57.7663C47.7055 57.4316 48.3402 57.2642 49.0693 57.2642C49.54 57.2642 49.9841 57.3404 50.4017 57.4929C50.8227 57.642 51.1939 57.8741 51.5154 58.1889C51.8402 58.5038 52.0954 58.9048 52.281 59.392C52.4666 59.8759 52.5594 60.4527 52.5594 61.1222V61.674H46.3002V60.4609H50.8343C50.8309 60.1162 50.7564 59.8097 50.6105 59.5412C50.4647 59.2694 50.2609 59.0556 49.999 58.8999C49.7405 58.7441 49.4389 58.6662 49.0942 58.6662C48.7263 58.6662 48.4031 58.7557 48.1247 58.9347C47.8463 59.1103 47.6292 59.3423 47.4735 59.6307C47.321 59.9157 47.2431 60.2289 47.2398 60.5703V61.6293C47.2398 62.0734 47.321 62.4545 47.4834 62.7727C47.6458 63.0876 47.8728 63.3295 48.1645 63.4986C48.4562 63.6643 48.7976 63.7472 49.1887 63.7472C49.4505 63.7472 49.6875 63.7107 49.8996 63.6378C50.1117 63.5616 50.2957 63.4505 50.4514 63.3047C50.6072 63.1589 50.7249 62.9782 50.8044 62.7628L52.4848 62.9517C52.3788 63.3958 52.1766 63.7836 51.8783 64.1151C51.5833 64.4432 51.2055 64.6984 50.7448 64.8807C50.2841 65.0597 49.7571 65.1491 49.1638 65.1491ZM60.1175 59.3821L58.4768 59.5611C58.4304 59.3954 58.3492 59.2396 58.2332 59.0938C58.1205 58.9479 57.9681 58.8303 57.7758 58.7408C57.5836 58.6513 57.3483 58.6065 57.0699 58.6065C56.6953 58.6065 56.3805 58.6877 56.1253 58.8501C55.8734 59.0125 55.7491 59.223 55.7524 59.4815C55.7491 59.7036 55.8303 59.8842 55.996 60.0234C56.165 60.1626 56.4434 60.277 56.8312 60.3665L58.1338 60.6449C58.8563 60.8007 59.3933 61.0476 59.7446 61.3857C60.0992 61.7237 60.2782 62.1662 60.2815 62.7131C60.2782 63.1937 60.1373 63.6179 59.8589 63.9858C59.5838 64.3504 59.201 64.6354 58.7105 64.8409C58.22 65.0464 57.6565 65.1491 57.0202 65.1491C56.0855 65.1491 55.3331 64.9536 54.7631 64.5625C54.193 64.1681 53.8532 63.6196 53.7439 62.9169L55.4988 62.7479C55.5784 63.0926 55.7474 63.3527 56.0059 63.5284C56.2645 63.7041 56.6009 63.7919 57.0152 63.7919C57.4427 63.7919 57.7858 63.7041 58.0443 63.5284C58.3061 63.3527 58.4371 63.1357 58.4371 62.8771C58.4371 62.6584 58.3525 62.4777 58.1835 62.3352C58.0178 62.1927 57.7593 62.0833 57.4079 62.0071L56.1054 61.7337C55.3729 61.5812 54.831 61.3243 54.4797 60.9631C54.1283 60.5985 53.9543 60.1378 53.9577 59.581C53.9543 59.1103 54.0819 58.7027 54.3405 58.358C54.6023 58.0099 54.9652 57.7415 55.4292 57.5526C55.8966 57.3603 56.4352 57.2642 57.045 57.2642C57.9399 57.2642 58.6442 57.4548 59.1579 57.8359C59.675 58.2171 59.9948 58.7325 60.1175 59.3821Z" fill="white"/>
</svg>
