<svg width="85" height="68" viewBox="0 0 85 68" fill="none" xmlns="http://www.w3.org/2000/svg">
<path fill-rule="evenodd" clip-rule="evenodd" d="M23.7709 25C23.7709 14.9323 31.9323 6.77083 42 6.77083C52.0677 6.77083 60.2292 14.9323 60.2292 25C60.2292 35.0677 52.0677 43.2292 42 43.2292C31.9323 43.2292 23.7709 35.0677 23.7709 25ZM39.6038 19.3932C37.6589 20.9933 36.3595 23.2439 35.9463 25.7283L34.5781 33.9535C34.2623 35.8524 36.4703 37.1271 37.9568 35.9041L44.396 30.6067C46.3409 29.0066 47.6403 26.7561 48.0535 24.2717L49.4217 16.0465C49.7375 14.1476 47.5296 12.8728 46.043 14.0958L39.6038 19.3932Z" fill="white"/>
<path d="M38.875 25C38.875 23.2741 40.2742 21.875 42 21.875C43.7259 21.875 45.125 23.2741 45.125 25C45.125 26.7259 43.7259 28.125 42 28.125C40.2742 28.125 38.875 26.7259 38.875 25Z" fill="white"/>
<path d="M21.574 65.1491C20.8083 65.1491 20.1471 64.9901 19.5903 64.6719C19.0368 64.3504 18.6109 63.8963 18.3126 63.3097C18.0143 62.7197 17.8651 62.0253 17.8651 61.2266C17.8651 60.4411 18.0143 59.7517 18.3126 59.1584C18.6142 58.5618 19.0351 58.0978 19.5754 57.7663C20.1156 57.4316 20.7503 57.2642 21.4795 57.2642C21.9501 57.2642 22.3943 57.3404 22.8119 57.4929C23.2328 57.642 23.604 57.8741 23.9255 58.1889C24.2503 58.5038 24.5055 58.9048 24.6911 59.392C24.8767 59.8759 24.9695 60.4527 24.9695 61.1222V61.674H18.7103V60.4609H23.2444C23.2411 60.1162 23.1665 59.8097 23.0207 59.5412C22.8749 59.2694 22.671 59.0556 22.4092 58.8999C22.1507 58.7441 21.849 58.6662 21.5044 58.6662C21.1365 58.6662 20.8133 58.7557 20.5349 58.9347C20.2565 59.1103 20.0394 59.3423 19.8836 59.6307C19.7311 59.9157 19.6533 60.2289 19.6499 60.5703V61.6293C19.6499 62.0734 19.7311 62.4545 19.8936 62.7727C20.056 63.0876 20.283 63.3295 20.5747 63.4986C20.8663 63.6643 21.2077 63.7472 21.5988 63.7472C21.8606 63.7472 22.0976 63.7107 22.3097 63.6378C22.5219 63.5616 22.7058 63.4505 22.8616 63.3047C23.0174 63.1589 23.135 62.9782 23.2146 62.7628L24.895 62.9517C24.7889 63.3958 24.5867 63.7836 24.2884 64.1151C23.9935 64.4432 23.6156 64.6984 23.1549 64.8807C22.6942 65.0597 22.1672 65.1491 21.574 65.1491ZM27.7996 57.3636L29.3408 60.1825L30.9069 57.3636H32.811L30.5091 61.1818L32.8508 65H30.9566L29.3408 62.2507L27.74 65H25.8309L28.1576 61.1818L25.8905 57.3636H27.7996ZM34.203 67.8636V57.3636H35.9729V58.6264H36.0773C36.1701 58.4408 36.301 58.2436 36.4701 58.0348C36.6391 57.8227 36.8678 57.642 37.1562 57.4929C37.4445 57.3404 37.8124 57.2642 38.2599 57.2642C38.8498 57.2642 39.3818 57.415 39.8557 57.7166C40.333 58.0149 40.7108 58.4574 40.9893 59.044C41.271 59.6274 41.4118 60.3433 41.4118 61.1918C41.4118 62.0303 41.2743 62.7429 40.9992 63.3295C40.7241 63.9162 40.3496 64.3636 39.8756 64.6719C39.4017 64.9801 38.8647 65.1342 38.2648 65.1342C37.8273 65.1342 37.4644 65.0613 37.176 64.9155C36.8877 64.7696 36.6557 64.594 36.48 64.3885C36.3077 64.1797 36.1734 63.9825 36.0773 63.7969H36.0028V67.8636H34.203ZM35.968 61.1818C35.968 61.6757 36.0376 62.1082 36.1768 62.4794C36.3193 62.8506 36.5231 63.1406 36.7883 63.3494C37.0567 63.5549 37.3815 63.6577 37.7627 63.6577C38.1604 63.6577 38.4935 63.5516 38.762 63.3395C39.0305 63.1241 39.2326 62.8307 39.3685 62.4595C39.5077 62.085 39.5773 61.6591 39.5773 61.1818C39.5773 60.7079 39.5094 60.2869 39.3735 59.919C39.2376 59.5511 39.0354 59.2628 38.767 59.054C38.4985 58.8452 38.1637 58.7408 37.7627 58.7408C37.3782 58.7408 37.0518 58.8419 36.7833 59.044C36.5148 59.2462 36.311 59.5296 36.1718 59.8942C36.0359 60.2588 35.968 60.688 35.968 61.1818ZM44.7528 54.8182V65H42.953V54.8182H44.7528ZM49.9344 65.1491C49.1887 65.1491 48.5423 64.9851 47.9955 64.657C47.4486 64.3288 47.0244 63.8698 46.7227 63.2798C46.4244 62.6899 46.2753 62.0005 46.2753 61.2116C46.2753 60.4228 46.4244 59.7318 46.7227 59.1385C47.0244 58.5452 47.4486 58.0845 47.9955 57.7564C48.5423 57.4283 49.1887 57.2642 49.9344 57.2642C50.6801 57.2642 51.3264 57.4283 51.8733 57.7564C52.4202 58.0845 52.8428 58.5452 53.1411 59.1385C53.4427 59.7318 53.5935 60.4228 53.5935 61.2116C53.5935 62.0005 53.4427 62.6899 53.1411 63.2798C52.8428 63.8698 52.4202 64.3288 51.8733 64.657C51.3264 64.9851 50.6801 65.1491 49.9344 65.1491ZM49.9443 63.7074C50.3487 63.7074 50.6868 63.5964 50.9585 63.3743C51.2303 63.1489 51.4325 62.8473 51.5651 62.4695C51.701 62.0916 51.7689 61.6707 51.7689 61.2067C51.7689 60.7393 51.701 60.3168 51.5651 59.9389C51.4325 59.5578 51.2303 59.2545 50.9585 59.0291C50.6868 58.8037 50.3487 58.6911 49.9443 58.6911C49.53 58.6911 49.1853 58.8037 48.9102 59.0291C48.6385 59.2545 48.4346 59.5578 48.2987 59.9389C48.1662 60.3168 48.0999 60.7393 48.0999 61.2067C48.0999 61.6707 48.1662 62.0916 48.2987 62.4695C48.4346 62.8473 48.6385 63.1489 48.9102 63.3743C49.1853 63.5964 49.53 63.7074 49.9443 63.7074ZM55.121 65V57.3636H56.866V58.6364H56.9456C57.0848 58.1955 57.3234 57.8558 57.6615 57.6172C58.0029 57.3752 58.3923 57.2543 58.8298 57.2543C58.9292 57.2543 59.0403 57.2592 59.1629 57.2692C59.2889 57.2758 59.3933 57.2874 59.4761 57.304V58.9595C59.3999 58.933 59.2789 58.9098 59.1132 58.8899C58.9508 58.8667 58.7934 58.8551 58.6409 58.8551C58.3128 58.8551 58.0178 58.9264 57.7559 59.0689C57.4974 59.2081 57.2936 59.402 57.1444 59.6506C56.9953 59.8991 56.9207 60.1858 56.9207 60.5107V65H55.121ZM63.738 65.1491C62.9724 65.1491 62.3112 64.9901 61.7544 64.6719C61.2008 64.3504 60.7749 63.8963 60.4767 63.3097C60.1784 62.7197 60.0292 62.0253 60.0292 61.2266C60.0292 60.4411 60.1784 59.7517 60.4767 59.1584C60.7783 58.5618 61.1992 58.0978 61.7394 57.7663C62.2797 57.4316 62.9144 57.2642 63.6436 57.2642C64.1142 57.2642 64.5583 57.3404 64.9759 57.4929C65.3969 57.642 65.7681 57.8741 66.0896 58.1889C66.4144 58.5038 66.6696 58.9048 66.8552 59.392C67.0408 59.8759 67.1336 60.4527 67.1336 61.1222V61.674H60.8744V60.4609H65.4085C65.4052 60.1162 65.3306 59.8097 65.1847 59.5412C65.0389 59.2694 64.8351 59.0556 64.5732 58.8999C64.3147 58.7441 64.0131 58.6662 63.6684 58.6662C63.3005 58.6662 62.9774 58.7557 62.699 58.9347C62.4205 59.1103 62.2035 59.3423 62.0477 59.6307C61.8952 59.9157 61.8173 60.2289 61.814 60.5703V61.6293C61.814 62.0734 61.8952 62.4545 62.0576 62.7727C62.22 63.0876 62.4471 63.3295 62.7387 63.4986C63.0304 63.6643 63.3718 63.7472 63.7629 63.7472C64.0247 63.7472 64.2617 63.7107 64.4738 63.6378C64.6859 63.5616 64.8699 63.4505 65.0257 63.3047C65.1814 63.1589 65.2991 62.9782 65.3786 62.7628L67.059 62.9517C66.953 63.3958 66.7508 63.7836 66.4525 64.1151C66.1575 64.4432 65.7797 64.6984 65.319 64.8807C64.8583 65.0597 64.3313 65.1491 63.738 65.1491Z" fill="white"/>
</svg>

