<svg width="85" height="69" viewBox="0 0 85 69" fill="none" xmlns="http://www.w3.org/2000/svg">
<path d="M35.2292 25C35.2292 21.2606 38.2606 18.2292 42 18.2292C45.7394 18.2292 48.7708 21.2606 48.7708 25C48.7708 28.7394 45.7394 31.7708 42 31.7708C38.2606 31.7708 35.2292 28.7394 35.2292 25Z" fill="white"/>
<path fill-rule="evenodd" clip-rule="evenodd" d="M40.8765 3.83023C41.4907 3.19473 42.5093 3.19473 43.1235 3.83023L48.4825 9.375H56.0625C56.9255 9.375 57.625 10.0746 57.625 10.9375V18.5175L63.1698 23.8765C63.8053 24.4907 63.8053 25.5093 63.1698 26.1235L57.625 31.4825V39.0625C57.625 39.9254 56.9255 40.625 56.0625 40.625H48.4825L43.1235 46.1698C42.5093 46.8053 41.4907 46.8053 40.8765 46.1698L35.5175 40.625H27.9375C27.0746 40.625 26.375 39.9254 26.375 39.0625V31.4825L20.8303 26.1235C20.1948 25.5093 20.1948 24.4907 20.8303 23.8765L26.375 18.5175V10.9375C26.375 10.0746 27.0746 9.375 27.9375 9.375H35.5175L40.8765 3.83023ZM42 15.1042C36.5347 15.1042 32.1042 19.5347 32.1042 25C32.1042 30.4653 36.5347 34.8958 42 34.8958C47.4653 34.8958 51.8958 30.4653 51.8958 25C51.8958 19.5347 47.4653 15.1042 42 15.1042Z" fill="white"/>
<path d="M21.843 59.3821L20.2024 59.5611C20.156 59.3954 20.0748 59.2396 19.9588 59.0938C19.8461 58.9479 19.6937 58.8303 19.5014 58.7408C19.3092 58.6513 19.0739 58.6065 18.7955 58.6065C18.4209 58.6065 18.1061 58.6877 17.8509 58.8501C17.599 59.0125 17.4747 59.223 17.478 59.4815C17.4747 59.7036 17.5559 59.8842 17.7216 60.0234C17.8906 60.1626 18.169 60.277 18.5568 60.3665L19.8594 60.6449C20.5819 60.8007 21.1188 61.0476 21.4702 61.3857C21.8248 61.7237 22.0038 62.1662 22.0071 62.7131C22.0038 63.1937 21.8629 63.6179 21.5845 63.9858C21.3094 64.3504 20.9266 64.6354 20.4361 64.8409C19.9455 65.0464 19.3821 65.1491 18.7457 65.1491C17.8111 65.1491 17.0587 64.9536 16.4886 64.5625C15.9186 64.1681 15.5788 63.6196 15.4695 62.9169L17.2244 62.7479C17.304 63.0926 17.473 63.3527 17.7315 63.5284C17.9901 63.7041 18.3265 63.7919 18.7408 63.7919C19.1683 63.7919 19.5114 63.7041 19.7699 63.5284C20.0317 63.3527 20.1626 63.1357 20.1626 62.8771C20.1626 62.6584 20.0781 62.4777 19.9091 62.3352C19.7434 62.1927 19.4848 62.0833 19.1335 62.0071L17.831 61.7337C17.0985 61.5812 16.5566 61.3243 16.2053 60.9631C15.8539 60.5985 15.6799 60.1378 15.6832 59.581C15.6799 59.1103 15.8075 58.7027 16.0661 58.358C16.3279 58.0099 16.6908 57.7415 17.1548 57.5526C17.6222 57.3603 18.1607 57.2642 18.7706 57.2642C19.6655 57.2642 20.3698 57.4548 20.8835 57.8359C21.4006 58.2171 21.7204 58.7325 21.843 59.3821ZM26.8718 65.1491C26.1062 65.1491 25.445 64.9901 24.8881 64.6719C24.3346 64.3504 23.9087 63.8963 23.6104 63.3097C23.3121 62.7197 23.163 62.0253 23.163 61.2266C23.163 60.4411 23.3121 59.7517 23.6104 59.1584C23.9121 58.5618 24.333 58.0978 24.8732 57.7663C25.4135 57.4316 26.0482 57.2642 26.7773 57.2642C27.248 57.2642 27.6921 57.3404 28.1097 57.4929C28.5307 57.642 28.9019 57.8741 29.2234 58.1889C29.5482 58.5038 29.8034 58.9048 29.989 59.392C30.1746 59.8759 30.2674 60.4527 30.2674 61.1222V61.674H24.0082V60.4609H28.5423C28.5389 60.1162 28.4644 59.8097 28.3185 59.5412C28.1727 59.2694 27.9689 59.0556 27.707 58.8999C27.4485 58.7441 27.1469 58.6662 26.8022 58.6662C26.4343 58.6662 26.1112 58.7557 25.8327 58.9347C25.5543 59.1103 25.3372 59.3423 25.1815 59.6307C25.029 59.9157 24.9511 60.2289 24.9478 60.5703V61.6293C24.9478 62.0734 25.029 62.4545 25.1914 62.7727C25.3538 63.0876 25.5808 63.3295 25.8725 63.4986C26.1642 63.6643 26.5056 63.7472 26.8967 63.7472C27.1585 63.7472 27.3955 63.7107 27.6076 63.6378C27.8197 63.5616 28.0037 63.4505 28.1594 63.3047C28.3152 63.1589 28.4329 62.9782 28.5124 62.7628L30.1928 62.9517C30.0868 63.3958 29.8846 63.7836 29.5863 64.1151C29.2913 64.4432 28.9135 64.6984 28.4528 64.8807C27.9921 65.0597 27.4651 65.1491 26.8718 65.1491ZM35.6032 57.3636V58.7557H31.2132V57.3636H35.6032ZM32.2971 55.5341H34.0968V62.7031C34.0968 62.9451 34.1332 63.1307 34.2061 63.2599C34.2824 63.3859 34.3818 63.4721 34.5044 63.5185C34.6271 63.5649 34.763 63.5881 34.9121 63.5881C35.0248 63.5881 35.1275 63.5798 35.2203 63.5632C35.3165 63.5466 35.3894 63.5317 35.4391 63.5185L35.7424 64.9254C35.6462 64.9586 35.5087 64.995 35.3297 65.0348C35.1541 65.0746 34.9386 65.0978 34.6834 65.1044C34.2327 65.1177 33.8266 65.0497 33.4654 64.9006C33.1041 64.7481 32.8174 64.5128 32.6053 64.1946C32.3965 63.8764 32.2937 63.4787 32.2971 63.0014V55.5341ZM40.9215 57.3636V58.7557H36.5316V57.3636H40.9215ZM37.6154 55.5341H39.4151V62.7031C39.4151 62.9451 39.4516 63.1307 39.5245 63.2599C39.6007 63.3859 39.7002 63.4721 39.8228 63.5185C39.9454 63.5649 40.0813 63.5881 40.2305 63.5881C40.3432 63.5881 40.4459 63.5798 40.5387 63.5632C40.6348 63.5466 40.7077 63.5317 40.7575 63.5185L41.0607 64.9254C40.9646 64.9586 40.8271 64.995 40.6481 65.0348C40.4724 65.0746 40.257 65.0978 40.0018 65.1044C39.551 65.1177 39.145 65.0497 38.7837 64.9006C38.4225 64.7481 38.1358 64.5128 37.9237 64.1946C37.7148 63.8764 37.6121 63.4787 37.6154 63.0014V55.5341ZM42.4267 65V57.3636H44.2264V65H42.4267ZM43.3315 56.2798C43.0465 56.2798 42.8012 56.1854 42.5957 55.9964C42.3902 55.8042 42.2875 55.5739 42.2875 55.3054C42.2875 55.0336 42.3902 54.8033 42.5957 54.6143C42.8012 54.4221 43.0465 54.326 43.3315 54.326C43.6199 54.326 43.8651 54.4221 44.0673 54.6143C44.2728 54.8033 44.3755 55.0336 44.3755 55.3054C44.3755 55.5739 44.2728 55.8042 44.0673 55.9964C43.8651 56.1854 43.6199 56.2798 43.3315 56.2798ZM47.8768 60.5256V65H46.0771V57.3636H47.7972V58.6612H47.8867C48.0624 58.2337 48.3424 57.8939 48.7269 57.642C49.1147 57.3902 49.5936 57.2642 50.1637 57.2642C50.6907 57.2642 51.1497 57.3769 51.5408 57.6023C51.9353 57.8277 52.2402 58.1541 52.4556 58.5817C52.6744 59.0092 52.7821 59.5279 52.7788 60.1378V65H50.979V60.4162C50.979 59.9058 50.8465 59.5064 50.5813 59.218C50.3195 58.9297 49.9566 58.7855 49.4925 58.7855C49.1777 58.7855 48.8976 58.8551 48.6523 58.9943C48.4104 59.1302 48.2198 59.3274 48.0806 59.5859C47.9447 59.8445 47.8768 60.1577 47.8768 60.5256ZM57.9293 68.0227C57.283 68.0227 56.7279 67.9349 56.2638 67.7592C55.7998 67.5869 55.427 67.3549 55.1452 67.0632C54.8635 66.7715 54.668 66.4484 54.5586 66.0938L56.1793 65.701C56.2522 65.8501 56.3583 65.9976 56.4975 66.1435C56.6367 66.2926 56.824 66.4152 57.0593 66.5114C57.2979 66.6108 57.5979 66.6605 57.9592 66.6605C58.4696 66.6605 58.8922 66.5362 59.2269 66.2876C59.5617 66.0424 59.729 65.638 59.729 65.0746V63.6278H59.6396C59.5468 63.8134 59.4109 64.004 59.2319 64.1996C59.0562 64.3951 58.8226 64.5592 58.5309 64.6918C58.2425 64.8243 57.8796 64.8906 57.4421 64.8906C56.8555 64.8906 56.3235 64.7531 55.8462 64.478C55.3723 64.1996 54.9944 63.7853 54.7127 63.2351C54.4343 62.6816 54.2951 61.9889 54.2951 61.157C54.2951 60.3184 54.4343 59.6108 54.7127 59.0341C54.9944 58.4541 55.3739 58.0149 55.8512 57.7166C56.3285 57.415 56.8604 57.2642 57.4471 57.2642C57.8945 57.2642 58.2624 57.3404 58.5508 57.4929C58.8424 57.642 59.0745 57.8227 59.2468 58.0348C59.4192 58.2436 59.5501 58.4408 59.6396 58.6264H59.739V57.3636H61.5138V65.1243C61.5138 65.7772 61.3581 66.3175 61.0465 66.745C60.735 67.1726 60.3091 67.4924 59.7688 67.7045C59.2286 67.9167 58.6154 68.0227 57.9293 68.0227ZM57.9442 63.4787C58.3254 63.4787 58.6502 63.3859 58.9187 63.2003C59.1871 63.0147 59.391 62.7479 59.5302 62.3999C59.6694 62.0518 59.739 61.6342 59.739 61.147C59.739 60.6664 59.6694 60.2455 59.5302 59.8842C59.3943 59.523 59.1921 59.2429 58.9237 59.044C58.6585 58.8419 58.332 58.7408 57.9442 58.7408C57.5432 58.7408 57.2085 58.8452 56.94 59.054C56.6715 59.2628 56.4693 59.5495 56.3335 59.9141C56.1976 60.2753 56.1296 60.6863 56.1296 61.147C56.1296 61.6143 56.1976 62.0237 56.3335 62.375C56.4727 62.723 56.6765 62.9948 56.945 63.1903C57.2167 63.3826 57.5498 63.4787 57.9442 63.4787ZM69.3938 59.3821L67.7532 59.5611C67.7068 59.3954 67.6256 59.2396 67.5096 59.0938C67.3969 58.9479 67.2444 58.8303 67.0522 58.7408C66.86 58.6513 66.6246 58.6065 66.3462 58.6065C65.9717 58.6065 65.6568 58.6877 65.4016 58.8501C65.1497 59.0125 65.0254 59.223 65.0288 59.4815C65.0254 59.7036 65.1067 59.8842 65.2724 60.0234C65.4414 60.1626 65.7198 60.277 66.1076 60.3665L67.4102 60.6449C68.1327 60.8007 68.6696 61.0476 69.021 61.3857C69.3756 61.7237 69.5546 62.1662 69.5579 62.7131C69.5546 63.1937 69.4137 63.6179 69.1353 63.9858C68.8602 64.3504 68.4774 64.6354 67.9869 64.8409C67.4963 65.0464 66.9329 65.1491 66.2965 65.1491C65.3619 65.1491 64.6095 64.9536 64.0394 64.5625C63.4693 64.1681 63.1296 63.6196 63.0202 62.9169L64.7752 62.7479C64.8548 63.0926 65.0238 63.3527 65.2823 63.5284C65.5408 63.7041 65.8772 63.7919 66.2915 63.7919C66.7191 63.7919 67.0621 63.7041 67.3207 63.5284C67.5825 63.3527 67.7134 63.1357 67.7134 62.8771C67.7134 62.6584 67.6289 62.4777 67.4599 62.3352C67.2942 62.1927 67.0356 62.0833 66.6843 62.0071L65.3817 61.7337C64.6493 61.5812 64.1074 61.3243 63.756 60.9631C63.4047 60.5985 63.2307 60.1378 63.234 59.581C63.2307 59.1103 63.3583 58.7027 63.6168 58.358C63.8787 58.0099 64.2416 57.7415 64.7056 57.5526C65.1729 57.3603 65.7115 57.2642 66.3214 57.2642C67.2163 57.2642 67.9206 57.4548 68.4343 57.8359C68.9513 58.2171 69.2712 58.7325 69.3938 59.3821Z" fill="white"/>
</svg>
