<svg width="85" height="68" viewBox="0 0 85 68" fill="none" xmlns="http://www.w3.org/2000/svg">
<g clip-path="url(#clip0_1_3326)">
<path d="M23.4722 4.44445L24.0139 4.98611C24.5556 5.51389 24.5556 6.40278 24.0139 6.93056L24 6.94445C23.4583 7.48611 22.5972 7.48611 22.0556 6.94445L21.5139 6.40278C20.9722 5.875 20.9722 5 21.5139 4.45833L21.5278 4.44445C22.0556 3.91667 22.9306 3.90278 23.4722 4.44445Z" fill="white"/>
<path d="M18.375 13.8194H19.7917C20.5556 13.8194 21.1667 14.4306 21.1667 15.2083V15.2222C21.1667 15.9861 20.5556 16.5972 19.7778 16.5833H18.375C17.6111 16.5833 17 15.9722 17 15.2083V15.1944C17 14.4306 17.6111 13.8194 18.375 13.8194Z" fill="white"/>
<path d="M32.2778 0H32.2917C33.0556 0 33.6667 0.611111 33.6667 1.375V2.72222C33.6667 3.48611 33.0556 4.09722 32.2778 4.08333H32.2639C31.5 4.08333 30.8889 3.47222 30.8889 2.70833V1.375C30.8889 0.611111 31.5 0 32.2778 0Z" fill="white"/>
<path d="M41.0833 4.44445C41.625 3.91667 42.5 3.91667 43.0417 4.45833C43.5833 5 43.5833 5.86111 43.0417 6.40278L42.5 6.94445C41.9722 7.48611 41.0972 7.48611 40.5556 6.94445L40.5417 6.93056C40 6.40278 40 5.52778 40.5417 4.98611L41.0833 4.44445Z" fill="white"/>
<path d="M23.9444 15.2083C23.9444 10.6111 27.6806 6.875 32.2778 6.875C35.4333 6.875 38.1831 8.63524 39.5975 11.226C37.9849 12.6599 36.7799 14.5423 36.1783 16.6775C36.0364 16.6703 35.8936 16.6667 35.75 16.6667C32.1002 16.6667 28.9984 19.0131 27.8708 22.2797C25.5142 20.8064 23.9444 18.1883 23.9444 15.2083Z" fill="white"/>
<path d="M23.4722 25.9583C22.9306 26.5 22.0556 26.5 21.5139 25.9583C20.9722 25.4167 20.9722 24.5556 21.5 24L22.0417 23.4583C22.5833 22.9167 23.4583 22.9167 24 23.4583L24.0139 23.4722C24.5417 24 24.5556 24.875 24.0139 25.4167L23.4722 25.9583Z" fill="white"/>
<path d="M58.6667 39.5833H31.5833C28.1316 39.5833 25.3333 36.7851 25.3333 33.3333C25.3333 30.6093 27.076 28.2923 29.5073 27.4364C29.5025 27.3193 29.5 27.2016 29.5 27.0833C29.5 22.481 33.231 18.75 37.8333 18.75C37.977 18.75 38.1197 18.7536 38.2616 18.7608C39.6183 13.9459 44.0428 10.4167 49.2917 10.4167C55.6199 10.4167 60.75 15.5467 60.75 21.875C60.75 22.3098 60.7258 22.739 60.6786 23.1612C64.309 24.0612 67 27.3413 67 31.25C67 35.8524 63.269 39.5833 58.6667 39.5833Z" fill="white"/>
<path d="M37.8029 47.9775L40.5721 42.4392C40.8088 41.9657 41.2927 41.6667 41.8221 41.6667C42.861 41.6667 43.5367 42.76 43.0721 43.6892L40.3029 49.2275C40.0662 49.7009 39.5823 50 39.0529 50C38.014 50 37.3383 48.9067 37.8029 47.9775Z" fill="white"/>
<path d="M44.0529 47.9775L46.8221 42.4392C47.0588 41.9657 47.5427 41.6667 48.0721 41.6667C49.111 41.6667 49.7867 42.76 49.3221 43.6892L46.5529 49.2275C46.3162 49.7009 45.8323 50 45.3029 50C44.264 50 43.5883 48.9067 44.0529 47.9775Z" fill="white"/>
</g>
<path d="M17.1238 65L14.9661 57.3636H16.8006L18.1429 62.733H18.2125L19.5847 57.3636H21.3993L22.7715 62.7031H22.8461L24.1685 57.3636H26.008L23.8453 65H21.9711L20.5392 59.8395H20.4348L19.003 65H17.1238ZM30.4265 65.1491C29.6609 65.1491 28.9996 64.9901 28.4428 64.6719C27.8893 64.3504 27.4634 63.8963 27.1651 63.3097C26.8668 62.7197 26.7177 62.0253 26.7177 61.2266C26.7177 60.4411 26.8668 59.7517 27.1651 59.1584C27.4667 58.5618 27.8877 58.0978 28.4279 57.7663C28.9682 57.4316 29.6029 57.2642 30.332 57.2642C30.8027 57.2642 31.2468 57.3404 31.6644 57.4929C32.0853 57.642 32.4566 57.8741 32.7781 58.1889C33.1029 58.5038 33.3581 58.9048 33.5437 59.392C33.7293 59.8759 33.8221 60.4527 33.8221 61.1222V61.674H27.5629V60.4609H32.0969C32.0936 60.1162 32.0191 59.8097 31.8732 59.5412C31.7274 59.2694 31.5236 59.0556 31.2617 58.8999C31.0032 58.7441 30.7016 58.6662 30.3569 58.6662C29.989 58.6662 29.6658 58.7557 29.3874 58.9347C29.109 59.1103 28.8919 59.3423 28.7362 59.6307C28.5837 59.9157 28.5058 60.2289 28.5025 60.5703V61.6293C28.5025 62.0734 28.5837 62.4545 28.7461 62.7727C28.9085 63.0876 29.1355 63.3295 29.4272 63.4986C29.7189 63.6643 30.0603 63.7472 30.4513 63.7472C30.7132 63.7472 30.9502 63.7107 31.1623 63.6378C31.3744 63.5616 31.5584 63.4505 31.7141 63.3047C31.8699 63.1589 31.9876 62.9782 32.0671 62.7628L33.7475 62.9517C33.6415 63.3958 33.4393 63.7836 33.141 64.1151C32.846 64.4432 32.4682 64.6984 32.0075 64.8807C31.5468 65.0597 31.0198 65.1491 30.4265 65.1491ZM37.5421 65.1541C37.0582 65.1541 36.6223 65.0679 36.2346 64.8956C35.8501 64.7199 35.5452 64.4614 35.3198 64.12C35.0977 63.7786 34.9867 63.3577 34.9867 62.8572C34.9867 62.4264 35.0662 62.0701 35.2253 61.7884C35.3844 61.5066 35.6015 61.2812 35.8766 61.1122C36.1517 60.9432 36.4616 60.8156 36.8063 60.7294C37.1543 60.6399 37.5139 60.5753 37.8851 60.5355C38.3326 60.4891 38.6955 60.4477 38.9739 60.4112C39.2523 60.3714 39.4545 60.3118 39.5804 60.2322C39.7097 60.1494 39.7743 60.0218 39.7743 59.8494V59.8196C39.7743 59.4451 39.6633 59.1551 39.4412 58.9496C39.2192 58.7441 38.8993 58.6413 38.4817 58.6413C38.0409 58.6413 37.6912 58.7375 37.4327 58.9297C37.1775 59.1219 37.0051 59.349 36.9157 59.6108L35.2353 59.3722C35.3678 58.9081 35.5866 58.5204 35.8915 58.2088C36.1964 57.8939 36.5693 57.6586 37.0101 57.5028C37.4509 57.3438 37.9382 57.2642 38.4718 57.2642C38.8397 57.2642 39.2059 57.3073 39.5705 57.3935C39.9351 57.4796 40.2682 57.6222 40.5698 57.821C40.8714 58.0166 41.1133 58.2834 41.2956 58.6214C41.4812 58.9595 41.574 59.3821 41.574 59.8892V65H39.8439V63.951H39.7843C39.6749 64.1631 39.5208 64.362 39.3219 64.5476C39.1264 64.7299 38.8794 64.8774 38.5811 64.9901C38.2862 65.0994 37.9398 65.1541 37.5421 65.1541ZM38.0094 63.8317C38.3707 63.8317 38.6839 63.7604 38.949 63.6179C39.2142 63.4721 39.418 63.2798 39.5605 63.0412C39.7064 62.8026 39.7793 62.5424 39.7793 62.2607V61.3608C39.723 61.4072 39.6268 61.4503 39.4909 61.4901C39.3584 61.5298 39.2092 61.5646 39.0435 61.5945C38.8778 61.6243 38.7137 61.6508 38.5513 61.674C38.3889 61.6972 38.248 61.7171 38.1287 61.7337C37.8603 61.7701 37.62 61.8298 37.4078 61.9126C37.1957 61.9955 37.0284 62.1115 36.9057 62.2607C36.7831 62.4065 36.7218 62.5954 36.7218 62.8274C36.7218 63.1589 36.8427 63.4091 37.0847 63.5781C37.3266 63.7472 37.6349 63.8317 38.0094 63.8317ZM47.1969 57.3636V58.7557H42.807V57.3636H47.1969ZM43.8908 55.5341H45.6905V62.7031C45.6905 62.9451 45.727 63.1307 45.7999 63.2599C45.8761 63.3859 45.9756 63.4721 46.0982 63.5185C46.2208 63.5649 46.3567 63.5881 46.5059 63.5881C46.6185 63.5881 46.7213 63.5798 46.8141 63.5632C46.9102 63.5466 46.9831 63.5317 47.0328 63.5185L47.3361 64.9254C47.24 64.9586 47.1025 64.995 46.9235 65.0348C46.7478 65.0746 46.5324 65.0978 46.2772 65.1044C45.8264 65.1177 45.4204 65.0497 45.0591 64.9006C44.6979 64.7481 44.4112 64.5128 44.199 64.1946C43.9902 63.8764 43.8875 63.4787 43.8908 63.0014V55.5341ZM50.6658 60.5256V65H48.8661V54.8182H50.6261V58.6612H50.7156C50.8945 58.2304 51.1713 57.8906 51.5458 57.642C51.9237 57.3902 52.4042 57.2642 52.9876 57.2642C53.5179 57.2642 53.9802 57.3752 54.3746 57.5973C54.7691 57.8194 55.074 58.1442 55.2894 58.5717C55.5082 58.9993 55.6175 59.5213 55.6175 60.1378V65H53.8178V60.4162C53.8178 59.9025 53.6853 59.5031 53.4201 59.218C53.1583 58.9297 52.7904 58.7855 52.3164 58.7855C51.9982 58.7855 51.7132 58.8551 51.4613 58.9943C51.2127 59.1302 51.0172 59.3274 50.8746 59.5859C50.7354 59.8445 50.6658 60.1577 50.6658 60.5256ZM60.8327 65.1491C60.0671 65.1491 59.4059 64.9901 58.8491 64.6719C58.2956 64.3504 57.8697 63.8963 57.5714 63.3097C57.2731 62.7197 57.1239 62.0253 57.1239 61.2266C57.1239 60.4411 57.2731 59.7517 57.5714 59.1584C57.873 58.5618 58.2939 58.0978 58.8342 57.7663C59.3744 57.4316 60.0091 57.2642 60.7383 57.2642C61.2089 57.2642 61.6531 57.3404 62.0707 57.4929C62.4916 57.642 62.8628 57.8741 63.1843 58.1889C63.5091 58.5038 63.7643 58.9048 63.9499 59.392C64.1355 59.8759 64.2283 60.4527 64.2283 61.1222V61.674H57.9691V60.4609H62.5032C62.4999 60.1162 62.4253 59.8097 62.2795 59.5412C62.1336 59.2694 61.9298 59.0556 61.668 58.8999C61.4094 58.7441 61.1078 58.6662 60.7631 58.6662C60.3952 58.6662 60.0721 58.7557 59.7937 58.9347C59.5153 59.1103 59.2982 59.3423 59.1424 59.6307C58.9899 59.9157 58.9121 60.2289 58.9087 60.5703V61.6293C58.9087 62.0734 58.9899 62.4545 59.1523 62.7727C59.3147 63.0876 59.5418 63.3295 59.8335 63.4986C60.1251 63.6643 60.4665 63.7472 60.8576 63.7472C61.1194 63.7472 61.3564 63.7107 61.5685 63.6378C61.7807 63.5616 61.9646 63.4505 62.1204 63.3047C62.2762 63.1589 62.3938 62.9782 62.4734 62.7628L64.1538 62.9517C64.0477 63.3958 63.8455 63.7836 63.5472 64.1151C63.2522 64.4432 62.8744 64.6984 62.4137 64.8807C61.953 65.0597 61.426 65.1491 60.8327 65.1491ZM65.7509 65V57.3636H67.4959V58.6364H67.5755C67.7147 58.1955 67.9533 57.8558 68.2914 57.6172C68.6328 57.3752 69.0222 57.2543 69.4597 57.2543C69.5591 57.2543 69.6702 57.2592 69.7928 57.2692C69.9187 57.2758 70.0231 57.2874 70.106 57.304V58.9595C70.0298 58.933 69.9088 58.9098 69.7431 58.8899C69.5807 58.8667 69.4232 58.8551 69.2708 58.8551C68.9426 58.8551 68.6477 58.9264 68.3858 59.0689C68.1273 59.2081 67.9235 59.402 67.7743 59.6506C67.6252 59.8991 67.5506 60.1858 67.5506 60.5107V65H65.7509Z" fill="white"/>
<defs>
<clipPath id="clip0_1_3326">
<rect width="50" height="50" fill="white" transform="translate(17)"/>
</clipPath>
</defs>
</svg>
